<svg xmlns="http://www.w3.org/2000/svg" version="1.1" xmlns:xlink="http://www.w3.org/1999/xlink" xmlns:svgjs="http://svgjs.dev/svgjs" viewBox="0 0 800 800"><defs><linearGradient x1="50%" y1="0%" x2="50%" y2="100%" id="ssscribble-grad"><stop stop-color="#44B4D0" stop-opacity="1" offset="0%"></stop><stop stop-color="#073040" stop-opacity="1" offset="100%"></stop></linearGradient></defs><g fill="none" stroke-width="1.5" stroke="url(#ssscribble-grad)" stroke-linecap="round"><path d="M1089.66 534.08C918.16 573.71 822.87 547.13 1059.16 482.81 993.67 447.39 787.9 424.96 606.33 443.13 559.51 516.58 654.05 646.57 796.32 809.49 907.14 944.11 917.08 1003.8 839.77 948.19 703.77 811.3 562.64 664 449.28 612.05 359.04 709.9 304.02 907.4 269.01 1070.82 244.8 1075.82 220.52 913.23 187.66 712.88 154.8 653.39 114.92 778.07 77.15 971.45 50.19 1083.39 45.43 1024.06 78.72 845.86 135.14 662.85 222.14 584.91 307.51 632.55 334.17 766.05 277.05 894.2 123.16 953.8 -62.17 929.13 -195.68 830.44 -183.06 701.35 -35.72 563.52 140.58 453.97 181.98 379.48 27.28 330.55 -202.77 304.14 -289.73 285.11 -144.99 273.39 83.97 254.14 137.66 221.28 -54.85 188.42 -265.26 143.51 -264.36 93.26 43.46 33.62 -84.42 54.16 -220.65 169.05 -105.97 247.5 89.71 299.02 248.7 280.65 310.13 178 266.95 10.89 175.05 -156.83 69.23 -238.7 6.25 -190.26 -5.78 -31.34 19.66 122.77 73.62 163.43 132.86 38.85 200.26 -167.21 254.16 -298.58 287.02 -239.14 325.01 45.82 330.36 -101.92 364.77 -265.11 433.75 -189.1 550.85 -12.35 707.32 158.76 849.86 248.6 940.22 227.91 921.86 136.36 805.94 16.52 649.21 -66.3 568.75 -89.12 649.9 -56.66 857.97 19.86 1042.98 112.23 1046.28 217.33 861.88 309.44 668.28 381.35 680.07 450.57 897.14 501.21 1089.66 534.08Q1089.66 534.08 1089.66 534.08" opacity="0.63"></path><path d="M1055.66 318.31C908.12 354.27 723.64 350.82 981.61 348.74 1017.76 373.95 888.75 430.1 694.41 527.83 544.93 651.12 516.95 790.45 591.43 907.62 721.25 959.22 825.47 924.85 865.75 807.91 842.05 671.93 765 580.85 668.3 603.24 557.47 742.91 462.31 931.36 390.3 1053.09 322.35 1026.39 274.15 863.69 243.64 678.88 213.13 616.85 201.74 717.11 212.15 895.74 226.62 1032.06 266.26 1029.93 324.21 900.1 368.03 716.9 394.83 580.57 371.5 544.77 284.19 610.87 136.17 728.22 -33.63 834.86 -148.11 900.4 -156.31 896.03 -38.6 836.27 123.96 735.95 225.6 624.6 167.09 523.92 -26.58 428.4 -217.27 355.33 -240.8 301.67 -76.03 253.63 130.47 216.16 171.66 185.64 -106.27 144.07 12.14 128.39 219.72 179.8 144.06 227.6 -27.7 288.71 -158.95 342 -170.46 354.76 -53.83 315.33 115.94 209.82 272.7 63.19 354.39 -90.34 360.5 -188.23 305.84 -184.22 232.08 -75.28 171.67 85.54 119.52 193.02 99.41 177.82 104.78 29.76 118.62 -160.64 144.17 -267.12 174.69 -205.14 205.2 -20.35 239.22 148.56 282.93 187.07 335.11 77.15 410.73 -93.93 515.75 -211.25 629.04 -211.3 753.06 -92.88 854.74 74.86 895.66 223.59 857.78 294.15 741.01 282.56 611.23 205.4 530.77 109.88 574.06 33.61 737.08 -17.09 936.22 -23.01 1034.25 4.65 956.31 56.26 759.11 118.44 614.5 176.76 667.91 239.1 881.34 287.79 1055.66 318.31Q1055.66 318.31 1055.66 318.31" opacity="0.24"></path><path d="M1021.66 177.64C991.83 205.8 804.15 230.25 619.07 255.4 575.21 286.34 693.28 328.69 868.41 391.21 981.82 469.06 953.25 571.26 812.34 689.94 631.86 797.29 503.28 881.46 465.13 912.2 514.45 878.61 609.32 782.62 700.87 655.04 774.21 560.26 799.85 540.38 785.49 624.94 742.72 784.02 684.58 947.94 628.19 1026.46 566.68 973.49 519.19 814.06 491.02 644.88 462.85 581.38 455.35 658.44 463.73 817.51 467.01 966.25 473.9 1013.04 467.87 940.42 433.41 786.61 361.39 626.78 244.64 524.53 109.68 506.48 -25.62 564.08 -111.86 657.29 -110.63 759.48 -15.44 827.08 135.7 848.41 247.29 829.4 250.59 775.61 116.54 706.39 -79.23 623.67 -213.32 546.83 -180.34 484.16 -6.13 421.44 175.83 375.24 205.66 347.06 -50.44 314.5 -26.01 342.03 227.2 388.74 245.27 409.16 133.75 416.58 -17.51 392.19 -126.45 327.45 -127.92 219.43 -35.27 80.33 114.84 -49.8 260.81 -140.81 364.68 -152.11 420.29 -79.2 427.14 55.36 408.64 188.53 369.15 240.53 335.71 177.74 320.02 18.14 304.25 -151.8 309.99 -234.59 338.16 -171.14 366.32 -1.98 415.58 163.18 484.47 227.05 553.29 159.43 637.96 11.54 726.27 -126.9 793.58 -190.83 833.11 -145.7 820.91 -21.6 760.46 135.3 654.92 264.69 541.72 335.2 485.99 341.38 520.85 297.65 659.12 233.71 839.72 158.44 976.5 102.62 979.07 73.58 846.07 59.88 662.97 68.77 572.87 90.95 660.1 118.92 865.29 149.47 1021.66 177.64Q1021.66 177.64 1021.66 177.64" opacity="0.87"></path><path d="M987.66 241.38C968 267.2 806.56 305.37 622.96 356.7 534.67 410.57 589.93 480.9 736.25 566.17 887.31 649.86 949.36 737.12 899.61 811.92 764.11 855.43 606.21 858.34 483.72 809.51 421.03 725.49 425.73 618.94 472.46 527.51 548.03 496.85 616.78 544.56 662.89 669.24 700.46 889.53 664.79 840.92 626.97 610.88 601.15 547 574.73 602.47 543.01 738.54 504.87 888.28 450.2 971.77 371.73 956.15 280.88 852.18 169.61 704.61 54.25 569.37 -32.27 480.97 -74.03 460.25 -45.18 494.67 43.45 570.28 170.74 652.32 279.36 717.59 302.22 766.11 217.01 782.2 47.03 772.18 -118.21 744.72 -188.16 705.46 -109.83 664.91 63.79 620.3 220 582.96 239.66 557.14 7.05 524.78 -62.23 502.16 193.1 481.02 289.38 446.31 265.59 387.71 156.74 299.4 17.62 194.35 -75.54 75.23 -91.29 -34.21 -31.99 -102.49 78.27 -112.4 200.6 -50.9 320.87 57.44 410.64 181.86 468.5 266.92 503.76 263.64 520.72 165.48 532.57 5.78 538.29 -140.25 551.44 -200.99 577.26 -137.15 603.08 16.33 640.35 174.65 683.31 257.83 720.16 230.86 750.18 117.27 759.65 -19.94 746.54 -125.71 699.29 -150.28 618.81 -92.74 536.29 25.56 463.08 162.72 437.62 280.59 487.22 363.26 611 397.42 777 393.71 912.74 358.7 959.68 313.96 882.32 275.02 726.99 234.49 579.53 211.13 543.84 205.95 656.01 203.31 848.86 215.56 987.66 241.38Q987.66 241.38 987.66 241.38" opacity="0.27"></path><path d="M953.69 450.96C942.86 474.43 808.01 512.68 634.78 563.07 516.09 611.77 510.78 668.27 605.85 724.85 809.99 784.08 807.6 749.91 619.54 637.26 492.67 553.74 405.63 483.51 363.34 455.6 360.72 490.25 384.63 586.55 416.24 724.82 457.99 859.09 488.4 945.83 501.61 945.76 514 858.71 508.61 714.77 485.14 576.89 461.67 513.7 421.23 549.66 364.56 660.7 307.1 801.35 233.98 907.1 151.55 940.24 79.26 894.55 16.7 787.2 -16.84 657.09 -10.73 533.85 42.6 449.8 138.7 413.45 240.54 422.76 323.63 463.62 344.47 516.33 280.04 578.46 142.27 627.96 -20.71 658.83 -132.98 681.64 -141.03 686.47 -31.39 677.85 132.77 665.53 262.86 646.21 273.69 622.74 152 599.27 -20.32 572.75 -138.98 540.81 -143.42 505.16 -31.91 457.64 130.76 394.14 272.65 322.59 332.83 234.45 303.34 136.14 204.07 47.25 88.05 -27.29 -0.11 -67.37 -44.4 -61.79 -29.72 -5.57 27.98 93.23 117.51 198.9 214.44 285.2 301.86 313.68 386.3 263.33 451.77 144.22 499.66 -5.47 543.46 -125.57 575.93 -166.29 599.41 -103.1 622.88 34.77 636.25 183.46 636.72 279.57 633.1 288.7 610.34 215.32 566.58 98.26 519.84 -22.81 461.56 -98.05 408.19 -108.26 386.65 -55.91 405.65 42.14 480.68 156.43 599.61 271.35 743.46 362.02 867.18 422.06 921.14 454.98 882.03 463.8 757.37 460.16 611.89 444.25 513.72 430.46 527.17 426.02 654.86 419.9 831.94 427.48 953.66 450.95Q953.69 450.96 953.69 450.96" opacity="0.59"></path><path d="M919.4 613.56C916.75 634.68 808.48 659.71 652.92 685.6 518.62 708.28 462.71 725.62 496.9 731.21 602.4 725.84 727.02 701.19 822.67 654.75 866.46 599.63 843.23 532.34 769.54 466.41 661.59 424.98 549.27 415.63 452.85 452.51 373.23 534.62 321.72 651.84 292.39 778.56 279.11 877.92 274.7 922.51 269.91 892.15 268.9 797.59 259.6 665.16 238.47 542.78 217.35 481.36 185.4 500.22 146.57 585.68 111.52 709.15 77.51 822.38 54.17 890.25 46.9 899.15 63.62 846.36 110.68 752.27 174.54 635.98 256.54 526.23 336.79 440.95 382.8 384.33 380.98 361.11 315.19 362.84 197.55 386.16 53.98 417.09 -66.99 445.36 -116.67 477.43 -72.78 498.29 53.36 505.33 200.76 511.73 304.75 504.55 307.4 483.43 201.72 462.31 47.32 428.25 -78.1 382.01 -122.66 335.14 -65.88 275.84 60.27 207.17 208.69 142.29 322.97 76.57 373.1 20.68 353.61 -13.61 283.01 -20.73 193.81 8.18 102.32 65.76 39.96 150.46 13.95 244.75 18.49 316.87 51.65 350.73 99.57 326.36 160.33 243.02 219.47 117.78 268.99 -13.84 319.88 -107.47 357.1 -130.64 378.23 -69.25 399.35 53.1 403.37 189.83 392.33 292.56 382.65 331.1 361.93 298.54 337.78 214.68 326.48 103.44 328.1 5.16 356.12 -54.96 414.69 -69.85 507.39 -35.45 626.56 33.65 743.45 127.28 839.09 224.89 880.59 312.58 852.45 391.57 757.11 451.01 624.18 492.99 513.51 524.01 468.75 545.1 521.45 562.26 655.04 576.21 813.73 592.43 919.4 613.56Q919.4 613.56 919.4 613.56" opacity="0.44"></path><path d="M885.68 579.89C888.61 598.66 804.77 608.97 672.05 609.93 537.31 609.13 448.05 596.15 426.7 569.96 474.01 541.14 565.76 500.58 667.87 453.06 785.8 397.49 754.48 406.76 644.75 510.9 556.52 611.79 475.51 721.77 408.32 818.05 346.59 876.71 299.63 883.36 264.94 830.94 233.21 734.92 208.77 615.91 189.99 508.85 171.21 450.3 158.98 454.81 155.3 515.54 154.58 616.28 167.38 723.66 196.56 809.34 231.21 859.36 281.31 860.2 340.59 817.57 389.44 740.69 426.37 646.68 434.65 552.67 402.67 463.79 328.11 393.78 216.77 344.64 40.82 304.61 -27.67 294.32 139.1 294.31 264.57 294.58 344.61 286.36 341.68 267.58 252.23 248.8 117.86 220.36 -6.3 184.67 -79.94 150.8 -74.88 113.59 0.13 78.59 120.91 52.39 248.2 37.32 348.8 40.49 406.87 60.68 414.19 103.73 382.27 168 319.37 237.4 249.19 309.15 187.88 366.48 133.32 389.55 100.72 371.87 88.58 308.09 87.96 208.65 100.49 90.58 119.49 -17.4 142.01 -85.38 164.25 -93.69 183.03 -35.14 201.81 71.91 216.24 194.72 229.13 297.99 245.54 357.66 267.16 361.69 300.32 316.8 344.99 234.28 408.51 141.14 492 59.8 582.25 -1.08 679.39 -26.2 766.91 -17.03 823.46 21.24 838.42 80.56 799.92 148.89 718.89 225.36 608.44 296.84 501.42 358.2 440.14 416.94 445.73 464.07 526.59 500.29 657.99 534.74 796.18 561.1 885.65 579.88Q885.68 579.89 885.68 579.89" opacity="0.71"></path><path d="M851.65 380.68C797.95 413.54 564.78 401.2 401.85 357.94 432.23 331.4 590.69 320.28 722.42 376.5 772.99 507.11 718.2 691.71 627.54 832.36 513.94 832.1 430.92 675.18 398.05 474.84 365.19 415.4 385.61 532.09 442.25 704.54 475.97 820.61 479.47 798.37 385.83 683.33 211.04 523.66 17.73 390.24 -36.73 305.55 102.1 244.09 321.95 206.15 375.65 173.29 183.13 140.43 -20.65 115.76 -28.62 120.27 149.49 148.01 355.1 230.15 456.61 346.75 439.69 418.72 359.46 406.1 295.46 265.95 233.49 69.41 221.35 -60.59 254.21 -1.15 287.08 199.18 361.82 369.42 480.75 393.77 601.69 277.2 733.21 127.46 793.19 39.92 734.75 26.77 563.99 89.17 409.96 172.66 442.02 272.87 659.13 347.82 851.65 380.68Q851.65 380.68 851.65 380.68" opacity="0.17"></path><path d="M817.69 199.27C787.8 227.44 602.46 239.38 421.5 252.42 351.64 286.23 413.21 356.41 525.56 477.31 674.04 685.75 656.79 686.84 608.43 440.89 580.26 377.39 566.99 448.22 545.19 586.96 495.22 726.19 393.65 784.67 237.06 758.85 87.79 671.32 -3.64 561.42 45.56 468.74 205.88 377.03 379.8 315.67 409.69 287.5 253.35 259.34 60.76 267.03 -14.56 309.92 61.33 353.79 230.33 419.73 385.01 470.35 489.07 459.26 519.24 370.92 514.98 211.05 486.35 51.67 475.72 -30.59 503.89 32.85 532.04 202.01 596.33 367.01 673.78 438.86 726.85 398.76 740.66 292.04 673.54 188.81 555.79 104.83 416.65 78.6 361.36 93.61 457.31 129.37 661.29 171.1 817.66 199.26Q817.69 199.27 817.69 199.27" opacity="0.94"></path><path d="M783.69 202.33C772.87 225.8 639.76 265.66 475.23 326.31 349.11 395.86 310.47 494.69 340.78 610.23 420.4 707.65 497.45 771.69 542.91 763.31 581.67 683.17 587.19 544.77 563.72 406.89 540.25 343.7 490.01 375.23 410.57 469.56 324.43 594.13 210.75 689.18 100.37 731.41 39.29 731.14 53.04 691.56 161.95 640.31 309.28 577.98 432.87 528.59 443.69 505.12 322 481.65 156.12 486.32 45.88 507.97 28.86 518.54 109.07 521.49 229.54 491 363.81 418.02 465.95 298.08 528.78 156.3 574.59 44.76 602.84 3.69 626.31 66.85 649.79 204.71 666.26 352.64 661.14 450.02 638.99 475.61 573.5 436.47 469.99 369.82 380.28 285.04 324.94 222.84 359.14 193.96 486.56 173.99 661.95 178.85 783.66 202.32Q783.69 202.33 783.69 202.33" opacity="0.33"></path><path d="M749.56 387.07C752.74 405.85 669.97 449.13 545.97 510.71 415.64 569.93 320.56 639.02 272.48 699.92 264.08 734.41 281.39 732.61 300.36 680.87 327.88 594.16 337 479.92 318.22 372.84 299.44 314.26 254.55 315.92 194.48 365.16 142.97 450.37 96.36 537.1 80.15 602.66 103.61 654.42 178.78 675.73 295.35 674.16 405.58 663.55 480.74 644.82 477.56 626.04 387.92 607.26 258.87 590.22 146.43 568.28 73.32 537.32 65.56 486.7 106.86 410.33 183.09 320.15 267.44 213.51 336.73 114.53 406.6 51.53 453.28 42.26 472.06 100.84 490.84 207.92 479.94 329.77 442.61 430.24 378.34 506.61 296.34 451.41 397.06 404.84 523.26 375.8 659.92 368.29 749.56 387.07Q749.56 387.07 749.56 387.07" opacity="0.20"></path><path d="M715.69 583.75C685.8 611.91 505.17 671.07 349.21 692 241.38 649.69 201.27 508.06 173.11 338.89 144.94 275.4 134.05 333.96 204.96 422.91 324.01 526 481.8 567.35 511.69 539.19 355.33 511.02 176.79 418.67 111.71 278.65 131.29 152.79 201.12 71.4 229.29 134.89 257.46 304.06 238.62 468.52 255.96 547.74 357.95 563.73 559.33 555.58 715.69 583.75Q715.69 583.75 715.69 583.75" opacity="0.17"></path><path d="M681.66 611.42C599.9 648.98 342.99 535.66 305.44 304.88 267.88 253.65 463.9 361.86 545.66 324.3 316.47 286.75 158.27 117.65 195.83 168.88 233.38 399.66 452.47 573.87 681.66 611.42Q681.66 611.42 681.66 611.42" opacity="0.58"></path></g></svg>