<svg xmlns="http://www.w3.org/2000/svg" version="1.1" xmlns:xlink="http://www.w3.org/1999/xlink" xmlns:svgjs="http://svgjs.dev/svgjs" viewBox="0 0 800 800"><defs><linearGradient x1="50%" y1="0%" x2="50%" y2="100%" id="ffflurry-grad" gradientTransform="rotate(270)"><stop stop-color="#0E0915" stop-opacity="1" offset="0%"></stop><stop stop-color="#44B4D0" stop-opacity="1" offset="45%"></stop><stop stop-color="#073040" stop-opacity="1" offset="100%"></stop></linearGradient></defs><rect width="100%" height="100%" fill="#0e0915"></rect><g fill="url(#ffflurry-grad)"><rect width="205" height="3" x="35.5" y="610.5" rx="1.5" transform="rotate(45, 138, 612)" opacity="0.16"></rect><rect width="268" height="3" x="625" y="511.5" rx="1.5" transform="rotate(45, 759, 513)" opacity="0.23"></rect><rect width="65" height="3" x="308.5" y="581.5" rx="1.5" transform="rotate(45, 341, 583)" opacity="0.14"></rect><rect width="70" height="3" x="133" y="62.5" rx="1.5" transform="rotate(45, 168, 64)" opacity="0.51"></rect><rect width="125" height="3" x="326.5" y="731.5" rx="1.5" transform="rotate(45, 389, 733)" opacity="0.34"></rect><rect width="79" height="3" x="-5.5" y="37.5" rx="1.5" transform="rotate(45, 34, 39)" opacity="0.52"></rect><rect width="64" height="3" x="182" y="461.5" rx="1.5" transform="rotate(45, 214, 463)" opacity="0.37"></rect><rect width="148" height="3" x="26" y="679.5" rx="1.5" transform="rotate(45, 100, 681)" opacity="0.73"></rect><rect width="435" height="3" x="171.5" y="262.5" rx="1.5" transform="rotate(45, 389, 264)" opacity="0.61"></rect><rect width="512" height="3" x="46" y="375.5" rx="1.5" transform="rotate(45, 302, 377)" opacity="0.79"></rect><rect width="502" height="3" x="418" y="37.5" rx="1.5" transform="rotate(45, 669, 39)" opacity="0.24"></rect><rect width="249" height="3" x="440.5" y="645.5" rx="1.5" transform="rotate(45, 565, 647)" opacity="0.26"></rect><rect width="480" height="3" x="-198" y="115.5" rx="1.5" transform="rotate(45, 42, 117)" opacity="0.23"></rect><rect width="399" height="3" x="413.5" y="223.5" rx="1.5" transform="rotate(45, 613, 225)" opacity="0.53"></rect><rect width="405" height="3" x="297.5" y="588.5" rx="1.5" transform="rotate(45, 500, 590)" opacity="0.29"></rect><rect width="290" height="3" x="-22" y="476.5" rx="1.5" transform="rotate(45, 123, 478)" opacity="0.77"></rect><rect width="525" height="3" x="211.5" y="670.5" rx="1.5" transform="rotate(45, 474, 672)" opacity="0.21"></rect><rect width="424" height="3" x="-18" y="358.5" rx="1.5" transform="rotate(45, 194, 360)" opacity="0.32"></rect><rect width="388" height="3" x="225" y="441.5" rx="1.5" transform="rotate(45, 419, 443)" opacity="0.26"></rect><rect width="592" height="3" x="144" y="540.5" rx="1.5" transform="rotate(45, 440, 542)" opacity="0.31"></rect><rect width="683" height="3" x="405.5" y="185.5" rx="1.5" transform="rotate(45, 747, 187)" opacity="0.94"></rect><rect width="506" height="3" x="129" y="155.5" rx="1.5" transform="rotate(45, 382, 157)" opacity="0.42"></rect><rect width="500" height="3" x="115" y="48.5" rx="1.5" transform="rotate(45, 365, 50)" opacity="0.51"></rect><rect width="51" height="3" x="276.5" y="288.5" rx="1.5" transform="rotate(45, 302, 290)" opacity="0.15"></rect><rect width="258" height="3" x="-101" y="697.5" rx="1.5" transform="rotate(45, 28, 699)" opacity="0.96"></rect><rect width="299" height="3" x="350.5" y="759.5" rx="1.5" transform="rotate(45, 500, 761)" opacity="0.11"></rect><rect width="459" height="3" x="411.5" y="658.5" rx="1.5" transform="rotate(45, 641, 660)" opacity="0.68"></rect><rect width="100" height="3" x="94" y="718.5" rx="1.5" transform="rotate(45, 144, 720)" opacity="0.20"></rect><rect width="132" height="3" x="247" y="205.5" rx="1.5" transform="rotate(45, 313, 207)" opacity="0.79"></rect><rect width="536" height="3" x="303" y="364.5" rx="1.5" transform="rotate(45, 571, 366)" opacity="0.80"></rect><rect width="129" height="3" x="426.5" y="358.5" rx="1.5" transform="rotate(45, 491, 360)" opacity="0.62"></rect><rect width="98" height="3" x="499" y="217.5" rx="1.5" transform="rotate(45, 548, 219)" opacity="0.44"></rect><rect width="559" height="3" x="398.5" y="352.5" rx="1.5" transform="rotate(45, 678, 354)" opacity="0.39"></rect><rect width="209" height="3" x="543.5" y="498.5" rx="1.5" transform="rotate(45, 648, 500)" opacity="0.84"></rect><rect width="241" height="3" x="-99.5" y="432.5" rx="1.5" transform="rotate(45, 21, 434)" opacity="0.35"></rect><rect width="153" height="3" x="487.5" y="49.5" rx="1.5" transform="rotate(45, 564, 51)" opacity="0.18"></rect><rect width="159" height="3" x="9.5" y="16.5" rx="1.5" transform="rotate(45, 89, 18)" opacity="0.38"></rect><rect width="121" height="3" x="-12.5" y="209.5" rx="1.5" transform="rotate(45, 48, 211)" opacity="0.38"></rect><rect width="343" height="3" x="50.5" y="567.5" rx="1.5" transform="rotate(45, 222, 569)" opacity="0.58"></rect><rect width="177" height="3" x="131.5" y="263.5" rx="1.5" transform="rotate(45, 220, 265)" opacity="0.89"></rect><rect width="308" height="3" x="375" y="150.5" rx="1.5" transform="rotate(45, 529, 152)" opacity="0.96"></rect><rect width="148" height="3" x="484" y="447.5" rx="1.5" transform="rotate(45, 558, 449)" opacity="0.17"></rect><rect width="69" height="3" x="663.5" y="583.5" rx="1.5" transform="rotate(45, 698, 585)" opacity="0.53"></rect><rect width="283" height="3" x="-88.5" y="762.5" rx="1.5" transform="rotate(45, 53, 764)" opacity="0.81"></rect><rect width="180" height="3" x="-24" y="438.5" rx="1.5" transform="rotate(45, 66, 440)" opacity="0.39"></rect><rect width="696" height="3" x="-40" y="676.5" rx="1.5" transform="rotate(45, 308, 678)" opacity="0.36"></rect><rect width="95" height="3" x="80.5" y="255.5" rx="1.5" transform="rotate(45, 128, 257)" opacity="0.58"></rect><rect width="336" height="3" x="407" y="548.5" rx="1.5" transform="rotate(45, 575, 550)" opacity="0.86"></rect><rect width="362" height="3" x="129" y="479.5" rx="1.5" transform="rotate(45, 310, 481)" opacity="0.72"></rect><rect width="29" height="3" x="757.5" y="736.5" rx="1.5" transform="rotate(45, 772, 738)" opacity="0.96"></rect><rect width="165" height="3" x="193.5" y="134.5" rx="1.5" transform="rotate(45, 276, 136)" opacity="0.97"></rect><rect width="427" height="3" x="-171.5" y="555.5" rx="1.5" transform="rotate(45, 42, 557)" opacity="0.18"></rect><rect width="78" height="3" x="370" y="343.5" rx="1.5" transform="rotate(45, 409, 345)" opacity="0.86"></rect><rect width="295" height="3" x="600.5" y="72.5" rx="1.5" transform="rotate(45, 748, 74)" opacity="0.35"></rect><rect width="197" height="3" x="113.5" y="667.5" rx="1.5" transform="rotate(45, 212, 669)" opacity="0.25"></rect><rect width="199" height="3" x="151.5" y="44.5" rx="1.5" transform="rotate(45, 251, 46)" opacity="0.61"></rect><rect width="505" height="3" x="379.5" y="141.5" rx="1.5" transform="rotate(45, 632, 143)" opacity="0.66"></rect><rect width="126" height="3" x="54" y="42.5" rx="1.5" transform="rotate(45, 117, 44)" opacity="0.25"></rect><rect width="421" height="3" x="-73.5" y="417.5" rx="1.5" transform="rotate(45, 137, 419)" opacity="1.00"></rect><rect width="102" height="3" x="106" y="771.5" rx="1.5" transform="rotate(45, 157, 773)" opacity="0.37"></rect><rect width="230" height="3" x="-5" y="527.5" rx="1.5" transform="rotate(45, 110, 529)" opacity="0.07"></rect><rect width="586" height="3" x="431" y="421.5" rx="1.5" transform="rotate(45, 724, 423)" opacity="0.80"></rect><rect width="274" height="3" x="465" y="748.5" rx="1.5" transform="rotate(45, 602, 750)" opacity="0.83"></rect><rect width="223" height="3" x="-4.5" y="342.5" rx="1.5" transform="rotate(45, 107, 344)" opacity="0.67"></rect><rect width="513" height="3" x="4.5" y="758.5" rx="1.5" transform="rotate(45, 261, 760)" opacity="0.82"></rect><rect width="299" height="3" x="-27.5" y="136.5" rx="1.5" transform="rotate(45, 122, 138)" opacity="0.97"></rect><rect width="68" height="3" x="557" y="297.5" rx="1.5" transform="rotate(45, 591, 299)" opacity="0.13"></rect><rect width="271" height="3" x="320.5" y="163.5" rx="1.5" transform="rotate(45, 456, 165)" opacity="0.33"></rect><rect width="101" height="3" x="-7.5" y="629.5" rx="1.5" transform="rotate(45, 43, 631)" opacity="0.20"></rect><rect width="422" height="3" x="489" y="752.5" rx="1.5" transform="rotate(45, 700, 754)" opacity="0.81"></rect><rect width="274" height="3" x="346" y="260.5" rx="1.5" transform="rotate(45, 483, 262)" opacity="0.24"></rect><rect width="545" height="3" x="476.5" y="647.5" rx="1.5" transform="rotate(45, 749, 649)" opacity="0.59"></rect><rect width="501" height="3" x="-213.5" y="317.5" rx="1.5" transform="rotate(45, 37, 319)" opacity="0.85"></rect><rect width="553" height="3" x="188.5" y="60.5" rx="1.5" transform="rotate(45, 465, 62)" opacity="0.98"></rect><rect width="244" height="3" x="557" y="260.5" rx="1.5" transform="rotate(45, 679, 262)" opacity="0.14"></rect><rect width="637" height="3" x="-128.5" y="170.5" rx="1.5" transform="rotate(45, 190, 172)" opacity="0.99"></rect><rect width="348" height="3" x="591" y="309.5" rx="1.5" transform="rotate(45, 765, 311)" opacity="0.69"></rect></g></svg>